0
SECTION
2
HEADER
9
$INSUNITS
70
4
9
$ACADVER
1
AC1014
9
$HANDSEED
5
FFFF
0
ENDSEC
0
SECTION
2
TABLES
0
TABLE
2
VPORT
5
8
100
AcDbSymbolTable
0
ENDTAB
0
TABLE
2
LTYPE
5
5
100
AcDbSymbolTable
0
LTYPE
5
14
100
AcDbSymbolTableRecord
100
AcDbLinetypeTableRecord
2
BYBLOCK
70
0
0
LTYPE
5
15
100
AcDbSymbolTableRecord
100
AcDbLinetypeTableRecord
2
BYLAYER
70
0
0
ENDTAB
0
TABLE
2
LAYER
5
2
100
AcDbSymbolTable
70
2
0
LAYER
5
50
100
AcDbSymbolTableRecord
100
AcDbLayerTableRecord
2
0
70
0
6
CONTINUOUS
0
ENDTAB
0
TABLE
2
STYLE
5
3
100
AcDbSymbolTable
70
1
0
STYLE
5
11
100
AcDbSymbolTableRecord
100
AcDbTextStyleTableRecord
2
STANDARD
70
0
0
ENDTAB
0
TABLE
2
VIEW
5
6
100
AcDbSymbolTable
70
0
0
ENDTAB
0
TABLE
2
UCS
5
7
100
AcDbSymbolTable
70
0
0
ENDTAB
0
TABLE
2
APPID
5
9
100
AcDbSymbolTable
70
2
0
APPID
5
12
100
AcDbSymbolTableRecord
100
AcDbRegAppTableRecord
2
ACAD
70
0
0
ENDTAB
0
TABLE
2
DIMSTYLE
5
A
100
AcDbSymbolTable
70
1
0
ENDTAB
0
TABLE
2
BLOCK_RECORD
5
1
100
AcDbSymbolTable
70
1
0
BLOCK_RECORD
5
1F
100
AcDbSymbolTableRecord
100
AcDbBlockTableRecord
2
*MODEL_SPACE
0
BLOCK_RECORD
5
1B
100
AcDbSymbolTableRecord
100
AcDbBlockTableRecord
2
*PAPER_SPACE
0
ENDTAB
0
ENDSEC
0
SECTION
2
BLOCKS
0
BLOCK
5
20
100
AcDbEntity
100
AcDbBlockBegin
2
*MODEL_SPACE
0
ENDBLK
5
21
100
AcDbEntity
100
AcDbBlockEnd
0
BLOCK
5
1C
100
AcDbEntity
100
AcDbBlockBegin
2
*PAPER_SPACE
0
ENDBLK
5
1D
100
AcDbEntity
100
AcDbBlockEnd
0
ENDSEC
0
SECTION
2
ENTITIES
0
LINE
5
100
100
AcDbEntity
8
OUTER_PROFILES
100
AcDbLine
10
358.77500000000003
20
0
30
0
11
358.77499999999998
21
358.77499999999998
31
0
0
LINE
5
101
100
AcDbEntity
8
OUTER_PROFILES
100
AcDbLine
10
358.77499999999998
20
358.77499999999998
30
0
11
4.4901280605343175
21
358.77499999999998
31
0
0
LINE
5
102
100
AcDbEntity
8
OUTER_PROFILES
100
AcDbLine
10
4.4901280605343175
20
358.77499999999998
30
0
11
175.77883903967461
21
187.4862890208598
31
0
0
ELLIPSE
5
103
100
AcDbEntity
8
OUTER_PROFILES
100
AcDbEllipse
10
180.80326973809827
20
180.71500561994065
30
0
11
0.034458790651017424
21
-11.02151324834853
31
0.0
40
0.57614311405866014
41
2.2341832071026162
42
4.0105168800602318
0
SPLINE
5
104
100
AcDbEntity
8
OUTER_PROFILES
100
AcDbSpline
70
0
71
3
72
11
73
7
74
0
42
0.000000001
43
0.0000000001
44
0.0000000001
40
0.50074078385406728
40
0.50074078385406728
40
0.50074078385406728
40
0.50074078385406728
40
0.63320920271845571
40
0.63320920271845571
40
0.63320920271845571
40
0.68057123468434966
40
0.68057123468434966
40
0.68057123468434966
40
0.68057123468434966
10
185.63007880261327
20
187.8461888121667
30
0
10
185.78443440798353
20
187.4886231164943
30
0
10
186.06029628765356
20
187.18081854080219
30
0
10
186.41495090568475
20
186.98233496486253
30
0
10
186.54175217273422
20
186.911370235692
30
0
10
186.67646707793483
20
186.85416500775833
30
0
10
186.80968321806336
20
186.80968321806341
30
0
0
ELLIPSE
5
105
100
AcDbEntity
8
OUTER_PROFILES
100
AcDbEllipse
10
180.59864186157139
20
181.57938154519582
30
0
11
10.952863998312026
21
2.2204460492503131e-15
31
0.0
40
0.57975703897890363
41
5.3153332950575498
42
7.2426077992110969
0
SPLINE
5
106
100
AcDbEntity
8
OUTER_PROFILES
100
AcDbSpline
70
0
71
3
72
11
73
7
74
0
42
0.000000001
43
0.0000000001
44
0.0000000001
40
-0.14153212645793353
40
-0.14153212645793353
40
-0.14153212645793353
40
-0.14153212645793353
40
-0.057242438257862752
40
-0.057242438257862752
40
-0.057242438257862752
40
-0.050823404252573229
40
-0.050823404252573229
40
-0.050823404252573229
40
-0.050823404252573229
10
186.88550890821665
20
176.37961915231796
30
0
10
186.67481333972268
20
176.32465784651248
30
0
10
186.50784943933405
20
176.16091070532167
30
0
10
186.44994258973406
20
175.94797206683015
30
0
10
186.44553272602877
20
175.93175584405481
30
0
10
186.44165599958086
20
175.91577191255448
30
0
10
186.4380857893606
20
175.89936831368649
30
0
0
ELLIPSE
5
107
100
AcDbEntity
8
OUTER_PROFILES
100
AcDbEllipse
10
181.08764218508281
20
181.80152108111631
30
0
11
0.034458790651296096
21
11.021513248349093
31
0.0
40
0.5761431140586305
41
2.1341078914887865
42
4.1307464284301219
0
LINE
5
108
100
AcDbEntity
8
OUTER_PROFILES
100
AcDbLine
10
175.7629218940433
20
175.76292189404327
30
0
11
152.65179260333662
21
152.65179260333656
31
0
0
LINE
5
109
100
AcDbEntity
8
OUTER_PROFILES
100
AcDbLine
10
152.65179260333662
20
152.65179260333656
30
0
11
152.75432308660865
21
152.54926212006453
31
0
0
LINE
5
110
100
AcDbEntity
8
OUTER_PROFILES
100
AcDbLine
10
152.75432308660865
20
152.54926212006453
30
0
11
152.54926212006455
21
152.34420115352043
31
0
0
LINE
5
111
100
AcDbEntity
8
OUTER_PROFILES
100
AcDbLine
10
152.54926212006455
20
152.34420115352043
30
0
11
125.50596327358511
21
179.38749999999999
31
0
0
LINE
5
112
100
AcDbEntity
8
OUTER_PROFILES
100
AcDbLine
10
125.50596327358511
20
179.38749999999999
30
0
11
8.9802561210692389
21
62.861792847484068
31
0
0
LINE
5
113
100
AcDbEntity
8
OUTER_PROFILES
100
AcDbLine
10
8.9802561210692389
20
62.861792847484068
30
0
11
36.023554967548641
21
35.818494001004524
31
0
0
LINE
5
114
100
AcDbEntity
8
OUTER_PROFILES
100
AcDbLine
10
36.023554967548641
20
35.818494001004524
30
0
11
35.818494001004559
21
35.613433034460407
31
0
0
LINE
5
115
100
AcDbEntity
8
OUTER_PROFILES
100
AcDbLine
10
35.818494001004559
20
35.613433034460407
30
0
11
35.715963517732483
21
35.715963517732504
31
0
0
LINE
5
116
100
AcDbEntity
8
OUTER_PROFILES
100
AcDbLine
10
35.715963517732483
20
35.715963517732504
30
0
11
-3.5527136788005009e-14
21
-3.5527136788005009e-14
31
0
0
LINE
5
117
100
AcDbEntity
8
OUTER_PROFILES
100
AcDbLine
10
-3.5527136788005009e-14
20
-3.5527136788005009e-14
30
0
11
358.77500000000003
21
0
31
0
0
CIRCLE
5
118
100
AcDbEntity
8
INTERIOR_PROFILES
100
AcDbCircle
10
-76.26222058710006
20
314.27195513855452
30
0
40
2.539999999999984
210
0
220
0
230
-1
0
CIRCLE
5
119
100
AcDbEntity
8
INTERIOR_PROFILES
100
AcDbCircle
10
-138.91197128071744
20
251.6222044449319
30
0
40
2.5399999999999965
210
0
220
0
230
-1
0
CIRCLE
5
120
100
AcDbEntity
8
INTERIOR_PROFILES
100
AcDbCircle
10
-110.35975031155422
20
140.66333677065418
30
0
40
2.5400000000000089
210
0
220
0
230
-1
0
CIRCLE
5
121
100
AcDbEntity
8
INTERIOR_PROFILES
100
AcDbCircle
10
-47.709999617934486
20
78.013586077033892
30
0
40
2.5399999999999903
210
0
220
0
230
-1
0
LINE
5
122
100
AcDbEntity
8
BEND
100
AcDbLine
10
357.66694622020401
20
358.77499877501907
30
-9.3469755872541356e-14
11
186.09669980946762
21
187.20475481690312
31
-6.7235863176735049e-12
0
LINE
5
123
100
AcDbEntity
8
BEND
100
AcDbLine
10
358.77501281630566
20
4.0263038980982557
30
-2.036564919048599e-14
11
186.58861190655583
21
176.21267914978472
31
-6.6435913463876574e-12
0
LINE
5
124
100
AcDbEntity
8
BEND
100
AcDbLine
10
150.76532258884657
20
154.12814068473853
30
-5.677773149199259e-12
11
34.23961543633061
21
37.60243353222252
31
-1.2784851031852334e-12
0
LINE
5
125
100
AcDbEntity
8
BEND_EXTENT
100
AcDbLine
10
35.921024484276657
20
35.921024484276515
30
-1.3502391721149698e-12
11
152.44673163679261
21
152.44673163679241
31
-5.7303209263244207e-12
0
LINE
5
126
100
AcDbEntity
8
BEND_EXTENT
100
AcDbLine
10
186.4380857893606
20
175.89936831368649
30
-6.6304919060730109e-12
11
358.77499999999998
21
3.5624541030471235
31
-1.3390340516685385e-13
0
LINE
5
127
100
AcDbEntity
8
BEND_EXTENT
100
AcDbLine
10
186.88550890821665
20
176.37961915231796
30
-6.6380985730836892e-12
11
358.77499999999998
21
4.4901280605346017
31
-2.1134146113445751e-13
0
LINE
5
128
100
AcDbEntity
8
BEND_EXTENT
100
AcDbLine
10
186.80968321806341
20
186.80968321806347
30
-6.6931292759066184e-12
11
358.77499999999998
21
358.77499999999998
31
-1.9246766971583187e-13
0
LINE
5
129
100
AcDbEntity
8
BEND_EXTENT
100
AcDbLine
10
32.558206388384612
20
39.283842580168624
30
-1.2480773665287371e-12
11
149.08391354090054
21
155.80954973268456
31
-5.6431818260401457e-12
0
LINE
5
130
100
AcDbEntity
8
BEND_EXTENT
100
AcDbLine
10
185.63007880261327
20
187.84618881216676
30
-6.8273976281480911e-12
11
356.55888999044646
21
358.77499999999986
31
-4.3786184760481389e-13
0
ENDSEC
0
SECTION
2
OBJECTS
0
DICTIONARY
5
C
100
AcDbDictionary
3
ACAD_GROUP
350
D
3
ACAD_MLINESTYLE
350
17
0
DICTIONARY
5
D
100
AcDbDictionary
0
DICTIONARY
5
1A
330
C
100
AcDbDictionary
0
DICTIONARY
5
17
100
AcDbDictionary
0
ENDSEC
0
EOF
